<svg height="512" viewBox="0 0 60 60" width="512" xmlns="http://www.w3.org/2000/svg"><g id="Page-1" fill="none" fill-rule="evenodd"><g id="027---Email-Tick"><path id="Path" d="m59 25.38v.53l-4 3.45v-9.08l2.49 1.97c.9525311.7598935 1.5080969 1.9114968 1.51 3.13z" fill="#ff9801"/><path id="Path" d="m59.0000352 25.91-.0000352 29.09c.0047904 1.1352797-.4798688 2.2175639-1.33 2.97l-18.86-14.66 16.19-13.95z" fill="#ffdf00"/><path id="Path" d="m56 28.5v26.5c-.0045481.4964356-.1022396.9876066-.288 1.448l1.958 1.522c.8501312-.7524361 1.3347904-1.8347203 1.33-2.97v-29.09z" fill="#fec108"/><path id="Path" d="m57.67 57.97c-.7317158.6621679-1.6831496 1.0292004-2.67 1.03h-50c-.98685044-.0007996-1.93828417-.3678321-2.67-1.03l18.86-14.66 7.57-5.88c.7283967-.5700405 1.7516033-.5700405 2.48 0l7.57 5.88z" fill="#ffeb3a"/><path id="Path" d="m21.19 43.31-18.86 14.66c-.85013118-.7524361-1.33479043-1.8347203-1.33-2.97l-.00003518-29.09 4.00003518 3.45z" fill="#ffdf00"/><path id="Path" d="m5 20.28v9.08l-4-3.45v-.53c.00190308-1.2185032.55746891-2.3701065 1.51-3.13z" fill="#ff9801"/><path id="Path" d="m55 3v26.36l-16.19 13.95-7.57-5.88c-.7283967-.5700405-1.7516033-.5700405-2.48 0l-7.57 5.88-16.19-13.95v-26.36c.0032948-1.10320187.89679813-1.9967052 2-2h46c1.1032019.0032948 1.9967052.89679813 2 2z" fill="#f5f5f5"/><path id="Path" d="m53 1h-3c1.1032019.0032948 1.9967052.89679813 2 2v26.36l-14.768 12.724 1.578 1.226 16.19-13.95v-26.36c-.0032948-1.10320187-.8967981-1.9967052-2-2z" fill="#cfd8dc"/><circle id="Oval" cx="30" cy="19" fill="#a4c400" r="14"/><path id="Path" d="m30 5c-.501124.00084103-1.0018425.02854746-1.5.083 7.1005043.77663505 12.477794 6.7741488 12.477794 13.917s-5.3772897 13.1403649-12.477794 13.917c5.1556805.5638557 10.2006402-1.7687254 13.1106632-6.0618293s3.2082338-9.8432051.7749798-14.423407c-2.433254-4.58020193-7.1992273-7.43993129-12.385643-7.4317637z" fill="#90ac00"/><path id="Path" d="m27 27c-.530609.0009915-1.039641-.2099652-1.414-.586l-4-4c-.7579444-.7847578-.7471047-2.0321696.0243628-2.8036372.7714676-.7714675 2.0188794-.7823072 2.8036372-.0243628l2.586 2.585 8.586-8.585c.5021489-.5199132 1.2457558-.7284252 1.9450146-.5453943.6992589.1830309 1.2453488.7291208 1.4283797 1.4283797.1830309.6992588-.0254811 1.4428657-.5453943 1.9450146l-10 10c-.374359.3760348-.883391.5869915-1.414.586z" fill="#f5f5f5"/><g fill="#000" fill-rule="nonzero"><path id="Shape" d="m58.11 21.466-2.11-1.666v-16.8c0-1.65685425-1.3431458-3-3-3h-46c-1.65685425 0-3 1.34314575-3 3v16.8l-2.114 1.669c-1.19298487.9472064-1.88763871 2.3877107-1.886 3.911v29.62c.00330612 2.7600532 2.23994685 4.9966939 5 5h50c2.7600532-.0033061 4.9966939-2.2399468 5-5v-29.62c.0012918-1.5249524-.6949266-2.9667508-1.89-3.914zm-.579 35.134-17.145-13.329 17.614-15.18v26.909c-.0005751.5671426-.1633044 1.1222959-.469 1.6zm-.665-33.565c.7161561.5675709 1.1337954 1.4312077 1.134 2.345v.072l-2 1.724v-4.83zm-49.866-21.035h46c.5522847 0 1 .44771525 1 1v25.9l-15.225 13.12-6.92-5.378c-1.0896026-.8518407-2.6193974-.8518407-3.709 0l-6.921 5.378-15.225-13.12v-25.9c0-.55228475.44771525-1 1-1zm-4.531 54.6c-.30569563-.4777041-.46842495-1.0328574-.469-1.6v-26.909l17.614 15.18zm.661-33.566.87-.688v4.83l-2-1.724v-.072c-.00136463-.9135323.41483194-1.7776006 1.13-2.346zm1.87 34.966c-.30152899-.0042093-.60064568-.0544555-.887-.149l25.262-19.633c.3676315-.2880434.8843685-.2880434 1.252 0l25.26 19.631c-.2862483.095224-.5853676.146145-.887.151z"/><path id="Shape" d="m30 34c8.2842712 0 15-6.7157288 15-15s-6.7157288-15-15-15-15 6.7157288-15 15c.0093685 8.2803876 6.7196124 14.9906315 15 15zm0-28c7.1797017 0 13 5.8202983 13 13s-5.8202983 13-13 13-13-5.8202983-13-13c.008266-7.1762751 5.8237249-12.99173398 13-13z"/><path id="Shape" d="m24.879 27.121c1.1714996 1.1711458 3.0705004 1.1711458 4.242 0l10-10c.562719-.5626237.8788593-1.3257625.8788593-2.1215s-.3161403-1.5588763-.8788593-2.1215c-1.1873934-1.1330821-3.0556066-1.1330821-4.243 0l-7.878 7.879-1.878-1.878c-1.1878011-1.1320639-3.0551989-1.1320639-4.243 0-.562719.5626237-.8788593 1.3257625-.8788593 2.1215s.3161403 1.5588763.8788593 2.1215zm-2.585-6.829c.3903851-.3897159 1.0226149-.3897159 1.413 0l2.586 2.585c.3904999.3903819 1.0235001.3903819 1.414 0l8.587-8.586c.3955536-.377016 1.0174464-.377016 1.413 0 .3903819.3904999.3903819 1.0235001 0 1.414l-10 10c-.395481.3781625-1.018519.3781625-1.414 0l-4-4c-.187777-.1875683-.2932867-.4420908-.2932867-.7075s.1055097-.5199317.2932867-.7075z"/></g></g></g></svg>